#!OML:ASF F:\VICON\USERDATA\INSTALL\rory3\rory3.ASF
:FULLY-SPECIFIED
:DEGREES
420
root 5.39858 17.4112 1.44226 15.5732 3.55145 1.02958
lowerback -18.1334 3.84406 10.5476
upperback -13.1579 3.65577 -0.40429
thorax -3.61721 1.13684 -5.80553
lowerneck -3.2352 12.4701 4.75287
upperneck 14.2332 16.064 4.21668
head 4.86161 8.41863 1.39317
rclavicle 2.38542e-015 2.06736e-014
rhumerus 63.8854 25.055 -19.1956
rradius 100.046
rwrist -29.0799
rhand -7.33661 -42.7858
rfingers 7.12502
rthumb 18.5471 -71.9216
lclavicle 2.38542e-015 2.06736e-014
lhumerus 45.5524 -0.969295 1.74103
lradius 48.4014
lwrist 52.2871
lhand -19.7579 -17.9411
lfingers 7.12502
lthumb 6.57357 11.9369
rfemur -4.27308 12.9322 -6.78299
rtibia 7.01696
rfoot -16.6413 -22.7634
rtoes 37.0326
lfemur -14.7068 0.63967 -29.6007
ltibia 17.925
lfoot -17.0684 4.83367
ltoes 8.50643
421
root 5.40009 17.4122 1.43758 15.808 3.5799 1.13207
lowerback -18.2754 3.79161 10.4092
upperback -13.1843 3.58989 -0.440174
thorax -3.58632 1.11184 -5.77284
lowerneck -3.16456 12.5051 4.86934
upperneck 13.9026 16.1367 3.99134
head 4.7762 8.44019 1.29698
rclavicle 2.78299e-015 -3.18055e-015
rhumerus 63.7964 24.5536 -19.2555
rradius 99.8019
rwrist -28.8164
rhand -7.02803 -39.6102
rfingers 7.12502
rthumb 18.8439 -68.7174
lclavicle 2.78299e-015 -3.18055e-015
lhumerus 45.5072 -0.607984 1.65114
lradius 48.1776
lwrist 52.1314
lhand -19.5029 -18.2622
lfingers 7.12502
lthumb 6.81969 11.6079
rfemur -4.53776 12.7769 -6.95344
rtibia 7.10077
rfoot -16.9689 -22.5154
rtoes 37.7021
lfemur -14.9986 0.504893 -29.7111
ltibia 17.9907
lfoot -17.0475 4.83555
ltoes 8.60609
422
root 5.4008 17.4128 1.44343 15.8343 3.46865 1.05201
lowerback -18.3357 3.8146 10.4583
upperback -13.1645 3.60314 -0.409319
thorax -3.53181 1.11961 -5.76146
lowerneck -2.95958 12.541 4.93777
upperneck 13.6161 16.2168 3.81706
head 4.67448 8.46775 1.21455
rclavicle 5.96354e-015 3.18055e-014
rhumerus 63.6859 24.0591 -19.3403
rradius 100.448
rwrist -29.0152
rhand -6.79887 -44.084
rfingers 7.12502
rthumb 19.0643 -73.1697
lclavicle 5.96354e-015 3.18055e-014
lhumerus 45.5161 -0.214289 1.7917
lradius 47.876
lwrist 51.833
lhand -20.1602 -18.4873
lfingers 7.12502
lthumb 6.18519 11.4025
rfemur -4.77302 12.8779 -6.93759
rtibia 7.27981
rfoot -15.5423 -23.5105
rtoes 35.0954
lfemur -15.0719 0.419659 -29.6296
ltibia 18.0927
lfoot -17.1001 4.94928
ltoes 8.67209
423
root 5.40158 17.4149 1.4459 15.8583 3.48277 0.796539
lowerback -18.3041 3.84607 10.6905
upperback -13.1688 3.61683 -0.337443
thorax -3.55161 1.11305 -5.81275
lowerneck -2.9781 12.5768 4.88341
upperneck 13.5954 16.2554 3.91564
head 4.65831 8.48949 1.25205
rclavicle 3.97569e-016 2.70347e-014
rhumerus 63.5576 23.5316 -19.2955
rradius 100.665
rwrist -29.4069
rhand -7.54733 -45.0461
rfingers 7.12502
rthumb 18.3444 -74.2011
lclavicle 3.97569e-016 2.70347e-014
lhumerus 45.5367 0.165219 1.88631
lradius 47.6221
lwrist 51.4169
lhand -21.352 -18.5562
lfingers 7.12502
lthumb 5.03447 11.364
rfemur -4.79442 12.9137 -6.66165
rtibia 7.12746
rfoot -13.5451 -24.8531
rtoes 31.5529
lfemur -15.1952 0.40618 -29.3444
ltibia 18.1763
lfoot -17.0945 5.03952
ltoes 8.35502
424
root 5.40709 17.415 1.44831 15.825 3.58714 0.596613
lowerback -18.148 3.84133 10.9315
upperback -13.1707 3.59941 -0.290687
thorax -3.63662 1.08594 -5.90673
lowerneck -3.28013 12.6379 4.78431
upperneck 13.783 16.2969 4.1365
head 4.73891 8.52096 1.36085
rclavicle -1.47101e-014 -7.95139e-016
rhumerus 63.4244 22.9447 -19.237
rradius 100.762
rwrist -30.1843
rhand -7.848 -45.019
rfingers 7.12502
rthumb 18.0551 -74.201
lclavicle -1.47101e-014 -7.95139e-016
lhumerus 45.5038 0.47628 1.8558
lradius 47.4726
lwrist 51.1091
lhand -21.2674 -18.1034
lfingers 7.12502
lthumb 5.11614 11.8149
rfemur -4.39435 12.8829 -6.38759
rtibia 6.54346
rfoot -12.9876 -25.302
rtoes 30.578
lfemur -15.2283 0.489148 -29.1365
ltibia 18.2438
lfoot -17.1147 5.00842
ltoes 8.14737
425
root 5.41846 17.4123 1.46297 15.6169 3.51077 0.585514
lowerback -18.0177 3.84505 11.0807
upperback -13.093 3.59503 -0.282929
thorax -3.61413 1.0776 -5.98609
lowerneck -3.56193 12.7276 4.73159
upperneck 13.965 16.3913 4.23225
head 4.82923 8.57333 1.42967
rclavicle 1.11319e-014 -3.97569e-015
rhumerus 63.3437 22.512 -19.1552
rradius 100.385
rwrist -30.4954
rhand -8.16537 -39.0858
rfingers 7.12502
rthumb 17.7497 -68.2957
lclavicle 1.11319e-014 -3.97569e-015
lhumerus 45.309 0.671959 1.63262
lradius 47.4494
lwrist 51.1567
lhand -21.1266 -17.8446
lfingers 7.12502
lthumb 5.25208 12.0703
rfemur -3.87219 13.0395 -6.36997
rtibia 6.0683
rfoot -13.05 -25.1947
rtoes 30.3324
lfemur -14.9301 0.678914 -29.1946
ltibia 18.2878
lfoot -17.2501 4.92904
ltoes 8.4244
426
root 5.43283 17.4053 1.4967 14.9686 2.97474 0.47813
lowerback -17.6913 3.98786 11.4274
upperback -12.8177 3.75488 -0.26143
thorax -3.43478 1.15464 -6.1359
lowerneck -3.81078 12.7863 4.74722
upperneck 14.0694 16.4623 4.15962
head 4.91024 8.60561 1.43458
rclavicle -1.19271e-014 1.90833e-014
rhumerus 63.3474 22.131 -19.1954
rradius 100.628
rwrist -30.5832
rhand -8.25985 -39.5038
rfingers 7.12502
rthumb 17.6588 -68.7219
lclavicle -1.19271e-014 1.90833e-014
lhumerus 45.0159 0.842538 1.19112
lradius 47.4715
lwrist 51.5456
lhand -21.5584 -17.9864
lfingers 7.12502
lthumb 4.83515 11.9384
rfemur -3.23739 13.8093 -6.3434
rtibia 5.75223
rfoot -12.3576 -25.4507
rtoes 28.635
lfemur -14.0527 0.889603 -29.2254
ltibia 18.2643
lfoot -17.4793 5.33941
ltoes 8.49218
427
root 5.4343 17.4126 1.47483 15.6205 3.62742 0.648612
lowerback -17.8827 3.72356 11.1593
upperback -13.1182 3.44641 -0.270914
thorax -3.73953 0.989791 -6.04854
lowerneck -3.81647 12.7887 4.76417
upperneck 13.9932 16.4742 4.08187
head 4.89557 8.60611 1.40765
rclavicle -8.74653e-015 -2.06736e-014
rhumerus 63.2755 21.7333 -19.2028
rradius 101.106
rwrist -30.6702
rhand -8.31759 -42.7284
rfingers 7.12502
rthumb 17.6032 -71.9515
lclavicle -8.74653e-015 -2.06736e-014
lhumerus 44.8227 0.972438 0.788525
lradius 47.4561
lwrist 51.9809
lhand -22.0186 -17.8717
lfingers 7.12502
lthumb 4.39084 12.0628
rfemur -3.44848 12.9156 -6.44331
rtibia 5.52551
rfoot -12.3031 -25.5835
rtoes 28.8311
lfemur -14.8296 0.607149 -29.2997
ltibia 18.2262
lfoot -17.2899 4.82415
ltoes 8.19189
428
root 5.44127 17.4143 1.47704 15.9871 3.83931 0.720991
lowerback -18.1182 3.66703 11.0813
upperback -13.2684 3.3636 -0.296587
thorax -3.80536 0.943371 -6.04115
lowerneck -3.63499 12.8204 4.64713
upperneck 13.7306 16.526 4.18718
head 4.7649 8.62864 1.42914
rclavicle 2.10712e-014 -4.77083e-015
rhumerus 63.1022 21.3432 -19.1552
rradius 101.627
rwrist -30.7584
rhand -8.82751 -45.1865
rfingers 7.12502
rthumb 17.1125 -74.4529
lclavicle 2.10712e-014 -4.77083e-015
lhumerus 44.6978 1.13344 0.512863
lradius 47.4303
lwrist 52.1667
lhand -22.3367 -17.4064
lfingers 7.12502
lthumb 4.0836 12.5342
rfemur -3.68296 12.5512 -6.53871
rtibia 5.5806
rfoot -12.4132 -25.4465
rtoes 29.0228
lfemur -15.2232 0.509223 -29.37
ltibia 18.1978
lfoot -17.223 4.64239
ltoes 8.2549
429
root 5.44981 17.4121 1.48786 16.127 3.89611 0.740892
lowerback -18.33 3.67322 11.0872
upperback -13.2375 3.34063 -0.315156
thorax -3.66549 0.9393 -6.05965
lowerneck -3.69078 12.856 4.54866
upperneck 13.5111 16.5729 4.23588
head 4.69296 8.64611 1.4514
rclavicle 1.19271e-015 1.90833e-014
rhumerus 62.9604 20.8189 -19.1014
rradius 102.142
rwrist -30.8863
rhand -9.12965 -47.2021
rfingers 7.12502
rthumb 16.8216 -76.4935
lclavicle 1.19271e-015 1.90833e-014
lhumerus 44.643 1.51791 0.441959
lradius 47.2963
lwrist 51.9963
lhand -22.2624 -17.7315
lfingers 7.12502
lthumb 4.15539 12.2077
rfemur -4.0451 12.4334 -6.61135
rtibia 6.11179
rfoot -12.3681 -25.2292
rtoes 28.6441
lfemur -15.3059 0.405239 -29.4031
ltibia 18.1804
lfoot -17.2752 4.592
ltoes 8.69997
